<?xml version="1.0" encoding="UTF-8"?>
<svg id="Camada_2" data-name="Camada 2" xmlns="http://www.w3.org/2000/svg" xmlns:xlink="http://www.w3.org/1999/xlink" width="200px" height="175px" viewBox="0 0 1063.67 934.84">
  <defs>
    <style>
      .cls-1 {
        clip-path: url(#clippath);
      }

      .cls-2 {
        fill: none;
      }

      .cls-3 {
        fill: #502b3a;
      }
    </style>
    <clipPath id="clippath">
      <rect class="cls-2" width="1063.67" height="934.84"/>
    </clipPath>
  </defs>
  <g id="Camada_1-2" data-name="Camada 1">
    <g class="cls-1">
      <path class="cls-3" d="m322.27,808.95c-2.16,0-2.58,2.34-2.89,4.06-1.67,9.73-10.14,12.05-12.69,12.53-12.81,2.4-53.3,1.76-59.87,1.64v-72.93c0-.49.14-.63.64-.63,3.3,0,43.11.44,49.12,1.11,8.3.84,10.25,4.43,11,7.06v.02c.75,2.39,1.42,3.14,2.76,3.1.07,0,.13,0,.17,0,.28.02.7-.04,1.11-.43.97-.91,1.4-3.29,1.4-4.7,0-.74.77-6.09,1.39-10.39.78-5.39,1.25-8.73,1.25-9.39,0-2.43-1.41-2.69-2.02-2.69-1.22,0-2.12,1.03-3.62,2.75l-.37.43c-1.39,1.54-3.55,1.68-7.14,1.92-.79.05-1.69.11-2.65.19-4.89.43-47.77.44-52.64.44-.2,0-.27-.04-.27-.03-.04-.04-.15-.26-.15-1.26v-60.77c6.48.03,44.83.23,48.19.65,8.38.93,13.97,2.42,15.94,6.93.38.89.58,1.63.74,2.23.31,1.15.64,2.34,2.18,2.34,1.22,0,2.05-1.07,2.46-3.17v-.02c.5-2.94.9-5.78,1.11-7.79.37-3.5.89-6.18,1.27-8.14.3-1.57.51-2.6.51-3.36,0-2.53-1.15-2.91-1.83-2.91-.83,0-1.51.35-2.11.66-.4.2-.77.4-1.13.46h-.06c-1.79.47-5.35.88-9.3,1.08-3.34.16-86.98-.45-90.34-.45-1.33,0-4.45,0-4.45,2.7,0,2.07,2.36,2.68,3.14,2.88h.04c5.65,1.2,8.25,3.17,8.76,11.74.22,3.42.33,34.4.25,66.32-.1,38.59-.43,63.97-.89,67.9-.49,3.46-1.41,6.39-2.67,8.48-1.43,2.37-3.24,3.57-5.39,3.57-1.75,0-3.34,1.15-3.34,2.42,0,2.7,3.23,2.7,4.44,2.7,5.73,0,90.49.51,106.17.62h.03c1.05,0,2.03-.41,2.78-1.14.75-.75,1.17-1.74,1.17-2.8v-21.71c0-1.58,0-4.22-2.22-4.22"/>
      <path class="cls-3" d="m753.38,808.95c-2.16,0-2.58,2.34-2.89,4.06-1.67,9.73-10.14,12.05-12.7,12.53-12.81,2.4-53.3,1.76-59.86,1.64v-72.93c0-.49.14-.63.64-.63,3.3,0,43.11.44,49.12,1.11,8.3.84,10.25,4.43,11,7.06v.02c.75,2.39,1.42,3.13,2.76,3.1.07,0,.13,0,.17,0,.28.02.7-.04,1.11-.43.97-.91,1.4-3.29,1.4-4.7,0-.74.77-6.09,1.39-10.39.78-5.39,1.25-8.73,1.25-9.39,0-2.43-1.41-2.69-2.02-2.69-1.22,0-2.12,1.03-3.62,2.75l-.37.43c-1.39,1.54-3.55,1.68-7.14,1.92-.79.05-1.69.11-2.65.19-4.89.43-47.77.44-52.64.44-.2,0-.27-.04-.27-.03-.04-.04-.15-.26-.15-1.26v-60.77c6.47.03,44.83.23,48.2.65,8.38.93,13.97,2.42,15.94,6.93.38.89.58,1.63.74,2.23.31,1.15.64,2.34,2.18,2.34,1.22,0,2.05-1.07,2.46-3.17v-.02c.5-2.94.9-5.78,1.11-7.79.37-3.5.89-6.18,1.27-8.14.3-1.57.51-2.6.51-3.36,0-2.53-1.15-2.91-1.83-2.91-.83,0-1.51.35-2.1.66-.4.2-.77.4-1.13.46h-.06c-1.79.47-5.35.88-9.3,1.08-3.34.16-86.98-.45-90.34-.45-1.33,0-4.45,0-4.45,2.7,0,2.07,2.36,2.68,3.14,2.88h.04c5.65,1.2,8.25,3.17,8.76,11.74.22,3.42-.18,130.29-.64,134.22-.49,3.46-1.41,6.39-2.67,8.48-1.43,2.37-3.24,3.57-5.39,3.57-1.75,0-3.34,1.15-3.34,2.42,0,2.7,3.23,2.7,4.44,2.7,5.73,0,90.49.51,106.17.62h.03c1.05,0,2.03-.41,2.78-1.14.75-.75,1.17-1.74,1.17-2.8v-21.71c0-1.58,0-4.22-2.22-4.22"/>
      <path class="cls-3" d="m906.97,808.96c-1.99,0-2.5,1.92-2.89,4.06-1.67,9.73-10.14,12.05-12.7,12.53-12.81,2.4-53.3,1.76-59.86,1.64v-153.37c0-2.26-1.84-4.12-4.11-4.13-13.91-.11-24.83-.19-28.27-.19-1.33,0-4.45,0-4.45,2.7,0,2.07,2.37,2.68,3.14,2.88h.04c5.65,1.2,8.25,3.17,8.76,11.74.22,3.42-.18,130.28-.64,134.22-.49,3.45-1.41,6.39-2.67,8.47-1.43,2.37-3.24,3.57-5.39,3.57-1.75,0-3.34,1.15-3.34,2.42,0,2.7,3.23,2.7,4.44,2.7,5.84,0,89.85.5,106.17.62h.03c1.05,0,2.03-.4,2.77-1.14.75-.75,1.17-1.74,1.17-2.8v-21.71c0-1.58,0-4.22-2.22-4.22"/>
      <path class="cls-3" d="m163.2,753.08h-40.07c-1.36,0-4.54,0-4.54,2.67,0,1.46,2.07,2.06,5.23,2.82l.39.09c8.29,2.25,9.05,4.1,9.05,21.92v36.63c0,3.28-1.27,5.49-3.98,6.95h-.02c-5.88,3.36-16.67,4.54-24.12,4.54-10.62,0-20.66-1.82-29.87-5.39-9.96-3.87-19.29-9.94-27.72-18.05-2.41-2.31-23.51-23.61-23.51-59.68,0-12.35,2.07-23.54,6.15-33.27,3.75-8.93,9.18-16.35,15.7-21.46,17.12-13.31,33.17-14.42,46.87-14.42s25.08,1.99,34.81,5.75c8,3.1,14.27,7.38,17.19,11.77,1.39,2.19,2.52,4.34,3.43,6.07,1.68,3.18,2.44,4.63,3.65,4.63,2.92,0,2.92-3.22,2.92-5.57,0-16.02.84-20.03,1.29-22.18.18-.86.31-1.49.31-2.43,0-1.16-.62-2.61-3.55-2.91h-.06c-5.97-.24-13.71-1.17-18.01-2.17h-.02c-4.65-.98-22.69-3.81-36.6-3.81-17.37,0-39.91,1.6-60.22,14.11h0c-10.81,6.7-19.99,16.42-26.56,28.12C3.82,721.23,0,736.55,0,753.34c0,12.93,2.87,26.04,8.3,37.92,4.78,10.44,11.43,19.65,18.73,25.91,18.4,15.87,43.46,23.91,74.49,23.91,11.85,0,35.96-2.12,51.13-10.05l.04-.02c3.16-1.83,3.38-2.67,3.38-12.78,0,0,0-40.73.45-47.8.46-7.94,2.28-10.8,7.53-11.76,2.69-.44,3.69-1.23,3.69-2.93,0-2.67-3.17-2.67-4.53-2.67"/>
      <path class="cls-3" d="m1061.44,808.95c-2.16,0-2.58,2.34-2.89,4.06-1.67,9.73-10.14,12.05-12.69,12.53-12.82,2.4-53.3,1.76-59.86,1.64v-72.93c0-.49.14-.63.64-.63,3.3,0,43.11.44,49.12,1.11,8.3.84,10.25,4.43,11,7.06v.02c.75,2.39,1.42,3.14,2.76,3.1.07,0,.13,0,.17,0,.28.02.7-.04,1.11-.43.97-.91,1.4-3.29,1.4-4.7,0-.74.77-6.09,1.39-10.39.78-5.39,1.25-8.73,1.25-9.39,0-2.43-1.41-2.69-2.02-2.69-1.22,0-2.12,1.03-3.61,2.75l-.37.43c-1.39,1.54-3.55,1.68-7.14,1.92-.79.05-1.69.11-2.65.19-4.89.43-47.77.44-52.64.44-.2,0-.27-.03-.27-.03-.04-.04-.15-.26-.15-1.26v-60.77c6.47.03,44.83.23,48.19.65,8.38.93,13.97,2.42,15.94,6.93.38.89.58,1.63.74,2.23.31,1.15.63,2.34,2.18,2.34,1.22,0,2.05-1.07,2.46-3.17v-.02c.5-2.94.9-5.78,1.11-7.79.37-3.5.89-6.18,1.27-8.14.3-1.57.51-2.6.51-3.36,0-2.53-1.15-2.91-1.83-2.91-.82,0-1.51.35-2.1.66-.4.2-.77.4-1.13.46h-.06c-1.79.47-5.35.88-9.31,1.08-3.34.16-86.98-.45-90.34-.45-1.33,0-4.45,0-4.45,2.7,0,2.07,2.36,2.68,3.14,2.88h.04c5.65,1.2,8.25,3.17,8.76,11.74.22,3.41-.18,130.28-.64,134.22-.49,3.46-1.41,6.39-2.67,8.48-1.43,2.37-3.24,3.57-5.39,3.57-1.75,0-3.34,1.15-3.34,2.42,0,2.7,3.23,2.7,4.44,2.7,5.73,0,90.49.51,106.17.62h.03c1.05,0,2.03-.41,2.78-1.14.75-.75,1.17-1.74,1.17-2.8v-21.71c0-1.58,0-4.22-2.22-4.22"/>
      <path class="cls-3" d="m565.25,744.32l-7.69-5.89c-12.08-9.28-19.26-15.73-24-21.56-5.04-6.19-7.29-11.68-7.29-17.79,0-7.24,3.27-13.35,9.44-17.69,5.65-3.96,13.29-6.15,21.53-6.15,21.43,0,27.2,3.54,32.73,12.01.62.95,1.01,2.2,1.35,3.3.55,1.76,1.07,3.42,2.56,3.42,2.58,0,2.58-3.92,2.58-6.03,0-11.77.58-14.51.83-15.68.07-.35.13-.62.13-.95,0-2.48-2.31-2.48-3.29-2.48-1.91,0-3.88-.26-8.09-1.08-6.09-1.39-19.63-2.25-28.68-2.25-7.49,0-14.55.94-20.98,2.81-6.36,1.84-11.96,4.54-16.65,8.02-4.76,3.53-8.46,7.78-11.01,12.62-2.63,5.01-3.96,10.57-3.96,16.52,0,8.5,2.1,15.79,6.6,22.94,5.11,8.11,13.61,16.38,25.98,25.28,3.2,2.3,12.73,8.55,13.46,9.02,19.97,15.46,28.73,23.79,28.73,38.72,0,6.92-3.58,14.01-9.81,19.44-6.88,5.99-16.3,9.29-26.52,9.29-6.13,0-15.06-.79-22.76-4.54-7.37-3.59-11.89-9.08-13.46-16.33-.7-3.02-1.09-4.68-3.27-4.68-2.35,0-2.65,2.83-2.81,4.35v.04c-.07,1.01-.19,1.89-.34,2.92-.35,2.48-.83,5.88-.83,13.79,0,5.93.15,7.41,4.09,9.24,9.14,4.18,25.94,6.06,38.52,6.06,16.4,0,28.58-2.75,37.26-8.43,15.1-10.05,20.48-25.97,20.48-37.53,0-9.83-2.08-17.14-6.94-24.45-5.15-7.73-13.76-15.85-27.89-26.3"/>
      <path class="cls-3" d="m427.19,744.32l-7.69-5.89c-12.08-9.28-19.26-15.73-24-21.56-5.05-6.19-7.29-11.68-7.29-17.79,0-7.24,3.27-13.35,9.44-17.69,5.65-3.96,13.29-6.15,21.53-6.15,21.43,0,27.2,3.54,32.73,12.01.62.95,1.01,2.2,1.35,3.3.55,1.76,1.07,3.42,2.56,3.42,2.58,0,2.58-3.92,2.58-6.03,0-11.77.58-14.51.83-15.68.07-.35.13-.62.13-.95,0-2.48-2.31-2.48-3.29-2.48-1.91,0-3.88-.26-8.09-1.08-6.09-1.39-19.63-2.25-28.68-2.25-7.49,0-14.55.94-20.98,2.81-6.36,1.84-11.96,4.54-16.65,8.02-4.76,3.53-8.46,7.78-11.01,12.62-2.63,5.01-3.96,10.57-3.96,16.52,0,8.5,2.1,15.79,6.6,22.94,5.11,8.11,13.61,16.38,25.98,25.28,3.2,2.3,12.73,8.55,13.46,9.02,19.97,15.46,28.73,23.79,28.73,38.72,0,6.92-3.58,14.01-9.81,19.44-6.88,5.99-16.3,9.29-26.52,9.29-6.13,0-15.06-.79-22.76-4.54-7.37-3.59-11.89-9.08-13.46-16.33-.7-3.02-1.09-4.68-3.27-4.68-2.35,0-2.65,2.83-2.81,4.35v.04c-.07,1.01-.19,1.89-.34,2.92-.35,2.48-.83,5.88-.83,13.79,0,5.93.15,7.41,4.09,9.24,9.14,4.18,25.94,6.06,38.52,6.06,16.4,0,28.58-2.75,37.26-8.43,15.1-10.05,20.48-25.97,20.48-37.53,0-9.83-2.08-17.14-6.94-24.45-5.15-7.73-13.76-15.85-27.89-26.3"/>
      <polygon class="cls-3" points="103.47 895.7 131.44 895.7 131.44 902.51 111.13 902.51 111.13 911.7 127.75 911.7 127.75 918.28 111.13 918.28 111.13 927.47 131.44 927.47 131.44 934.28 103.47 934.28 103.47 895.7"/>
      <polygon class="cls-3" points="158.95 895.7 170.18 895.7 179.77 923.67 189.3 895.7 200.53 895.7 200.53 934.28 192.87 934.28 192.87 906.71 183.46 934.28 176.03 934.28 166.61 906.71 166.61 934.28 158.95 934.28 158.95 895.7"/>
      <path class="cls-3" d="m230.03,895.7h15.54c10.61,0,15.83,3.8,15.83,13.22s-5.22,13.56-15.83,13.56h-7.89v11.8h-7.66v-38.57Zm15.54,20.14c5.11,0,7.88-2.04,7.88-6.81s-2.78-6.52-7.88-6.52h-7.89v13.33h7.89Z"/>
      <path class="cls-3" d="m289.19,895.7h15.43c10.32,0,15.77,3.23,15.77,12.42,0,6.52-2.84,10.15-8.11,11.74,1.19.79,2.21,1.82,3.06,3.18l6.52,11.23h-8.45l-5.33-9.25c-2.04-3.57-4.93-4.09-9.7-4.09h-1.53v13.33h-7.66v-38.58Zm15.43,18.61c4.82,0,7.83-1.53,7.83-6.07s-3.01-5.73-7.83-5.73h-7.77v11.8h7.77Z"/>
      <polygon class="cls-3" points="348.81 895.7 376.77 895.7 376.77 902.51 356.47 902.51 356.47 911.7 373.09 911.7 373.09 918.28 356.47 918.28 356.47 927.47 376.77 927.47 376.77 934.28 348.81 934.28 348.81 895.7"/>
      <polygon class="cls-3" points="404.29 895.7 432.25 895.7 432.25 902.51 411.94 902.51 411.94 911.7 428.56 911.7 428.56 918.28 411.94 918.28 411.94 927.47 432.25 927.47 432.25 934.28 404.29 934.28 404.29 895.7"/>
      <polygon class="cls-3" points="468.95 895.7 484.72 922.76 484.72 895.7 492.38 895.7 492.38 934.28 482.91 934.28 467.42 907.84 467.42 934.28 459.76 934.28 459.76 895.7 468.95 895.7"/>
      <path class="cls-3" d="m521.88,895.7h14.8c11.46,0,19.06,5.56,19.06,19.29s-7.6,19.29-19.06,19.29h-14.8v-38.57Zm14.52,31.77c6.35,0,11.4-3.06,11.4-12.48s-5.05-12.48-11.4-12.48h-6.87v24.96h6.87Z"/>
      <rect class="cls-3" x="583.54" y="895.7" width="7.66" height="38.58"/>
      <polygon class="cls-3" points="620.69 895.7 631.92 895.7 641.51 923.67 651.04 895.7 662.27 895.7 662.27 934.28 654.61 934.28 654.61 906.71 645.2 934.28 637.77 934.28 628.35 906.71 628.35 934.28 620.69 934.28 620.69 895.7"/>
      <polygon class="cls-3" points="691.77 895.7 719.73 895.7 719.73 902.51 699.43 902.51 699.43 911.7 716.05 911.7 716.05 918.28 699.43 918.28 699.43 927.47 719.73 927.47 719.73 934.28 691.77 934.28 691.77 895.7"/>
      <polygon class="cls-3" points="756.43 895.7 772.21 922.76 772.21 895.7 779.86 895.7 779.86 934.28 770.39 934.28 754.9 907.84 754.9 934.28 747.24 934.28 747.24 895.7 756.43 895.7"/>
      <polygon class="cls-3" points="840.9 895.7 840.9 902.51 827.51 902.51 827.51 934.28 819.85 934.28 819.85 902.51 806.58 902.51 806.58 895.7 840.9 895.7"/>
      <path class="cls-3" d="m883.27,895.13c10.78,0,18.66,6.13,18.66,19.86s-7.89,19.85-18.66,19.85-18.61-6.12-18.61-19.85,7.89-19.86,18.61-19.86m.06,32.73c6.01,0,10.66-3.8,10.66-12.88s-4.65-12.93-10.66-12.93-10.72,3.86-10.72,12.93,4.71,12.88,10.72,12.88"/>
      <path class="cls-3" d="m944.2,895.13c10.72,0,14.75,5.28,15.03,12.48h-7.66c-.34-2.95-1.99-5.95-7.66-5.95-4.65,0-7.2,1.47-7.2,4.71,0,8.79,23.48,2.1,23.48,17.19,0,7.77-5.1,11.29-15.88,11.29-11.97,0-15.83-5.28-16.22-12.71h7.89c.17,3.29,2.38,6.18,8.51,6.18,5.56,0,7.77-1.53,7.77-4.71,0-7.26-23.49-1.02-23.49-16.96,0-7.37,5.56-11.52,15.43-11.52"/>
      <path class="cls-3" d="m471.56,146.26c-6.77,0-12.31,4.14-12.31,9.17s5.53,9.14,12.31,9.14h120.5c6.8,0,12.35-4.11,12.35-9.14s-5.55-9.17-12.35-9.17h-120.5Z"/>
      <path class="cls-3" d="m521.42,53.52c-5.16,16.45-3.91,44.51,4.62,88.85h11.55c8.52-44.34,9.77-72.4,4.65-88.85-1.4-4.47-5.9-6.69-10.38-6.69s-9.02,2.24-10.43,6.69"/>
      <path class="cls-3" d="m432.49,72.63c-2.74,3.04-4.69,6.7-5.51,10.91-1.41,6.9.58,14.74,5.06,21.28,4.14,6.11,10.21,11.01,16.57,15.05,8.65,5.44,17.34,10.23,20.81,22.49h2.75c-1.19-19.61-28.83-33.54-27.91-54.55.49-10.89,7.93-18.34,21.04-18.29.82-1.2,1.74-2.34,2.78-3.42-4.96-1.54-9.83-2.39-14.46-2.39-8.13,0-15.47,2.64-21.14,8.91"/>
      <path class="cls-3" d="m491.99,57.02c-7.57.79-14.63,3.59-19.91,8.61-14.24,13.49-10.26,31.93.19,45.15,4.32,5.42,9.99,9.17,14.43,14.38,3.79,4.46,6.47,9.73,6.24,17.17h2.95c5.13-20.71-21.8-39.17-14.07-61.05,4.66-13.16,17.56-19.99,34.39-14.03.42-1.65.7-3.39,1.1-5.05-5.66-3.46-13.21-5.41-20.83-5.41-1.5,0-3.01.08-4.5.23"/>
      <path class="cls-3" d="m595.57,66.11c1.01,1.09,1.96,2.21,2.79,3.42,13.09-.05,20.54,7.4,21.03,18.29.89,21-26.73,34.95-27.92,54.54h2.78c3.46-12.26,12.13-17.05,20.8-22.49,6.36-4.03,12.43-8.93,16.58-15.05,4.47-6.55,6.43-14.38,5.07-21.29-.85-4.2-2.79-7.87-5.52-10.91-5.67-6.28-13.04-8.92-21.16-8.92-4.64,0-9.52.86-14.46,2.4"/>
      <path class="cls-3" d="m546.34,62.2c.41,1.66.66,3.38,1.09,5.03,16.84-5.94,29.73.87,34.37,14.05,7.78,21.88-19.15,40.34-14.06,61.05h2.97c-.22-7.45,2.44-12.73,6.23-17.18,4.48-5.21,10.13-8.98,14.43-14.39,10.45-13.22,14.43-31.64.19-45.13-5.21-5.03-12.31-7.82-19.86-8.6-1.51-.16-3.02-.23-4.54-.23-7.63,0-15.15,1.93-20.82,5.41"/>
      <path class="cls-3" d="m685.27,477.23c-1.48,4.7.65,7.3-.67,14.85-1.19,6.86-5.96,12.13-11.52,17.33-17.4,16.2-46.63,24.44-71.16,35.83-5.16,2.04-10.39,4.76-16.07,8.17-4.14,2.54-8.32,5.07-12.04,8.23-22.62,19.23-21.21,34.39-21.21,34.39,3.97-7.79,10.62-15.93,18.58-23.03,10.16-9.11,22.57-16.99,35.72-19.86,9.91-2.2,18.66-.81,23.49,5.52,3.79,4.97,17.85,3.45,15.54-1.89,11.18,0,21.48-13.77,15.47-23.66,1.24,11.75-12.37,9.33-24.86,8.01-5.55-.58-10.57-.7-15.33-.35,29.74-10.73,62.1-23.45,72.67-46.7,5.94-15.01,1.01-23.54-3.5-23.56-2.28,0-4.45,2.16-5.09,6.73"/>
      <path class="cls-3" d="m373.3,470.51c-4.52.02-9.45,8.55-3.5,23.56,10.57,23.26,42.94,35.98,72.67,46.7-4.77-.35-9.78-.23-15.33.35-12.49,1.32-26.11,3.75-24.86-8.01-6.01,9.89,4.29,23.66,15.47,23.66-2.32,5.34,11.75,6.86,15.54,1.89,4.82-6.33,13.58-7.72,23.49-5.52,13.15,2.87,25.57,10.75,35.72,19.86,7.96,7.1,14.61,15.24,18.58,23.03,0,0,1.41-15.16-21.21-34.39-3.72-3.16-7.9-5.7-12.04-8.24-5.68-3.41-10.91-6.13-16.07-8.17-24.54-11.39-53.77-19.63-71.17-35.83-5.57-5.2-10.33-10.47-11.52-17.33-1.32-7.54.81-10.14-.67-14.85-.65-4.57-2.82-6.73-5.09-6.73"/>
      <path class="cls-3" d="m402.33,242.32c29.76.08,60.09-4.67,87.55-16.41,8.55-3.65,17.25-8.38,24.83-13.76,2.68-1.88,6.23-4.67,8.62-6.92,2.86-2.52,6.12-5.93,8.5-8.91,10.88,13.41,26.26,22.78,41.94,29.59,8.13,3.48,17.17,6.58,25.72,8.85,4.16,1.13,9.92,2.35,14.14,3.21,17.07,3.32,34.93,4.68,52.29,4.3v149.05l-.15,6.95c-.19,3.41-.9,10.13-1.38,13.5l-1.19,6.6-1.51,6.49-1.8,6.36-2.1,6.23c-1.16,3.07-3.72,9.05-5.11,12.02l-2.96,5.75c-31.68,58.24-100.65,84.44-164,62.05-11.9-4.44-23.99-10.85-34.15-18.52-8.27-6.18-16.64-14.2-23.24-22.14l-3.96-5.06-3.73-5.26-3.52-5.42-3.2-5.64-2.96-5.75c-1.44-3.01-3.94-8.85-5.13-12.02l-2.1-6.23-1.8-6.36-1.52-6.49-1.19-6.6c-.46-3.32-1.17-10.14-1.35-13.5l-.16-6.95v-149.05c.62.02,1.34-.02,1.96.06h2.64Zm129.5-64.87l-.12-.17c-1.5,1.73-10.95,13.58-12.24,14.77-1.04,1.09-3.18,3.17-4.3,4.17-8.75,7.82-19.36,13.89-30.1,18.53-20.8,8.94-43.6,13.45-66.13,14.93-5.35.35-12.04.48-17.4.47-3.21-.02-12.71-.3-16-.37v161.68l.22,7.4.51,7.39c.39,3.67,1.53,10.91,2.23,14.52.76,3.56,2.58,10.53,3.62,14.01,1.08,3.44,3.54,10.13,4.91,13.46,1.41,3.27,4.52,9.63,6.2,12.76l3.52,6.14,3.79,5.94c2,2.91,6.21,8.49,8.43,11.23l4.6,5.32c2.37,2.6,7.31,7.53,9.9,9.91l5.31,4.59c2.74,2.23,8.39,6.43,11.3,8.43l5.89,3.79,6.12,3.52,6.33,3.22c3.84,1.86,9.21,4.01,13.1,5.57,64.06,22.38,134.02.01,171.56-55.58,5.01-7.38,9.98-16.66,13.53-24.84,1.34-3.27,3.85-10.07,4.92-13.46,1.02-3.42,2.85-10.5,3.58-14.01l1.3-7.23.91-7.29.56-7.39.22-7.4v-161.68c-3.34.09-12.89.34-16.02.37-5.34.01-12.01-.11-17.35-.47-22.54-1.48-45.35-5.99-66.16-14.93-10.75-4.64-21.34-10.72-30.12-18.53-1.05-1-3.27-3.12-4.28-4.17-1.56-1.45-10.66-12.95-12.2-14.77l-.16.17Z"/>
      <path class="cls-3" d="m486.19,293.11c-20.08,12.62-37.65,38.09-37.65,74.18,0,28.17,13.07,52.3,26.83,64.27,25.02,21.87,57.06,24.11,74.2,24.11,13.07,0,36.49-2.48,50.92-10.13,2.7-1.59,2.93-2.02,2.93-12.2v-25.25c0-9.47,0-16.24.45-23.46.45-7.87,2.24-11.71,8.33-12.84,2.72-.45,2.94-1.14,2.94-2.06,0-1.33-1.13-1.78-3.62-1.78h-40.24c-2.51,0-3.63.46-3.63,1.78,0,.92,3.14,1.61,4.96,2.06,9.01,2.48,9.78,4.97,9.78,23.22v37.28c0,3.86-1.58,6.32-4.49,7.9-5.88,3.39-16.56,4.74-24.67,4.74-20.74,0-40.65-6.76-58.47-24.13-7.88-7.67-23.89-29.63-23.89-61.42,0-26.39,9.24-46.07,22.3-56.45,17.17-13.53,33.45-14.88,47.64-14.88,29.07,0,47.36,9.69,52.99,18.26,3.39,5.41,5.21,10.47,6.34,10.47,1.56,0,2.01-1.12,2.01-4.74,0-22.54,1.6-21.9,1.6-25.05,0-.89-.47-1.8-2.73-2.04-5.62-.22-13.52-1.11-18.26-2.23-4.29-.91-22.36-3.85-36.56-3.85-17.38,0-39.71,1.57-59.99,14.22"/>
      <path class="cls-3" d="m538.88,21.43c.47,6.91-6.35,14.17-6.4,21.46h-1.33c-.02-7.28-6.82-14.53-6.36-21.43-.47-6.91,6.35-14.18,6.4-21.47h1.33c.02,7.28,6.83,14.53,6.36,21.43"/>
    </g>
  </g>
</svg>