<svg width="65" height="66" viewBox="0 0 65 66" fill="none" xmlns="http://www.w3.org/2000/svg">
<g clip-path="url(#clip0_307_588)">
<path d="M10.8333 35.75C15.6625 36.3327 20.1582 38.5482 23.597 42.0399C27.0358 45.5316 29.2177 50.0965 29.7916 55C32.1856 53.5986 34.1881 51.6005 35.6098 49.1946C37.0315 46.7886 37.8254 44.0543 37.9166 41.25C42.4642 39.6256 46.4353 36.6685 49.3278 32.7525C52.2203 28.8366 53.9042 24.1377 54.1666 19.25C54.1666 17.062 53.3106 14.9635 51.7869 13.4164C50.2632 11.8692 48.1965 11 46.0416 11C41.228 11.2665 36.6003 12.9763 32.7437 15.9133C28.8871 18.8503 25.9748 22.8824 24.375 27.5C21.6132 27.5926 18.9203 28.3988 16.5508 29.8424C14.1813 31.286 12.2135 33.3192 10.8333 35.75Z" stroke="#9FFD8D" stroke-width="4" stroke-linecap="round" stroke-linejoin="round"/>
<path d="M18.9583 38.5C16.1396 40.1158 13.8603 42.5496 12.4127 45.4893C10.9651 48.4291 10.4152 51.7408 10.8333 55C14.0431 55.4246 17.3047 54.8662 20.1999 53.3963C23.0951 51.9264 25.492 49.6121 27.0833 46.75" stroke="#9FFD8D" stroke-width="4" stroke-linecap="round" stroke-linejoin="round"/>
<path d="M37.9167 24.75C37.9167 25.4793 38.202 26.1788 38.7099 26.6945C39.2179 27.2103 39.9067 27.5 40.625 27.5C41.3433 27.5 42.0322 27.2103 42.5401 26.6945C43.048 26.1788 43.3334 25.4793 43.3334 24.75C43.3334 24.0207 43.048 23.3212 42.5401 22.8055C42.0322 22.2897 41.3433 22 40.625 22C39.9067 22 39.2179 22.2897 38.7099 22.8055C38.202 23.3212 37.9167 24.0207 37.9167 24.75Z" stroke="#9FFD8D" stroke-width="4" stroke-linecap="round" stroke-linejoin="round"/>
</g>
<defs>
<clipPath id="clip0_307_588">
<rect width="65" height="66" fill="white"/>
</clipPath>
</defs>
</svg>
