<svg width="65" height="65" viewBox="0 0 65 65" fill="none" xmlns="http://www.w3.org/2000/svg">
<g clip-path="url(#clip0_307_574)">
<path d="M29.7917 32.5C29.7917 33.2183 30.077 33.9071 30.5849 34.415C31.0929 34.923 31.7817 35.2083 32.5 35.2083C33.2183 35.2083 33.9072 34.923 34.4151 34.415C34.923 33.9071 35.2084 33.2183 35.2084 32.5C35.2084 31.7817 34.923 31.0928 34.4151 30.5849C33.9072 30.077 33.2183 29.7916 32.5 29.7916C31.7817 29.7916 31.0929 30.077 30.5849 30.5849C30.077 31.0928 29.7917 31.7817 29.7917 32.5Z" stroke="#9FFD8D" stroke-width="4" stroke-linecap="round" stroke-linejoin="round"/>
<path d="M32.5 18.9584C29.8217 18.9584 27.2036 19.7526 24.9766 21.2406C22.7497 22.7285 21.0141 24.8435 19.9891 27.3179C18.9642 29.7923 18.696 32.5151 19.2185 35.1419C19.741 37.7687 21.0307 40.1816 22.9246 42.0754C24.8184 43.9693 27.2313 45.259 29.8581 45.7815C32.485 46.304 35.2077 46.0358 37.6822 45.0109C40.1566 43.986 42.2715 42.2503 43.7595 40.0234C45.2474 37.7965 46.0417 35.1783 46.0417 32.5" stroke="#9FFD8D" stroke-width="4" stroke-linecap="round" stroke-linejoin="round"/>
<path d="M35.2083 8.27393C30.1873 7.71063 25.1152 8.72156 20.6938 11.1669C16.2724 13.6122 12.7202 17.3711 10.5285 21.9236C8.33678 26.476 7.61392 31.597 8.45992 36.5783C9.30591 41.5595 11.6789 46.1548 15.2507 49.7284C18.8225 53.302 23.4166 55.6773 28.3974 56.5258C33.3782 57.3743 38.4996 56.654 43.0532 54.4646C47.6067 52.2752 51.3674 48.7248 53.8149 44.3047C56.2625 39.8845 57.276 34.813 56.7152 29.7916" stroke="#9FFD8D" stroke-width="4" stroke-linecap="round" stroke-linejoin="round"/>
<path d="M40.625 16.25V24.375H48.75L56.875 16.25H48.75V8.125L40.625 16.25Z" stroke="#9FFD8D" stroke-width="4" stroke-linecap="round" stroke-linejoin="round"/>
<path d="M40.625 24.375L32.5 32.5" stroke="#9FFD8D" stroke-width="2" stroke-linecap="round" stroke-linejoin="round"/>
</g>
<defs>
<clipPath id="clip0_307_574">
<rect width="65" height="65" fill="white"/>
</clipPath>
</defs>
</svg>
