<svg width="65" height="66" viewBox="0 0 65 66" fill="none" xmlns="http://www.w3.org/2000/svg">
<g clip-path="url(#clip0_307_560)">
<path d="M17.975 30.6185H34.225" stroke="#9FFD8D" stroke-width="4" stroke-linecap="round" stroke-linejoin="round"/>
<path d="M32.584 51.0977L21.6667 57.75V49.5H16.25C14.0951 49.5 12.0285 48.6308 10.5048 47.0836C8.98102 45.5365 8.125 43.438 8.125 41.25V19.25C8.125 17.062 8.98102 14.9635 10.5048 13.4164C12.0285 11.8692 14.0951 11 16.25 11H48.75C50.9049 11 52.9715 11.8692 54.4952 13.4164C56.019 14.9635 56.875 17.062 56.875 19.25V33" stroke="#9FFD8D" stroke-width="4" stroke-linecap="round" stroke-linejoin="round"/>
<path d="M41.6774 46.1216C41.9122 44.3026 42.7919 42.6328 44.1517 41.4249C45.5116 40.2169 47.2584 39.5536 49.0651 39.5591C50.8719 39.5646 52.6148 40.2385 53.9675 41.4547C55.3202 42.6709 56.19 44.346 56.4141 46.1664C56.6382 47.9868 56.2013 49.8277 55.185 51.3446C54.1687 52.8614 52.6429 53.9502 50.893 54.4071C49.1432 54.864 47.2893 54.6577 45.6785 53.8268C44.0676 52.9959 42.8102 51.5974 42.1417 49.893M41.6774 54.6073V49.893H46.3202" stroke="#9FFD8D" stroke-width="4" stroke-linecap="round" stroke-linejoin="round"/>
<path d="M17.975 22.9432H39.6417" stroke="#9FFD8D" stroke-width="4" stroke-linecap="round" stroke-linejoin="round"/>
</g>
<defs>
<clipPath id="clip0_307_560">
<rect width="65" height="66" fill="white"/>
</clipPath>
</defs>
</svg>
